<?xml version="1.0" encoding="utf-8"?>
<!-- Generator: Adobe Illustrator 16.0.0, SVG Export Plug-In . SVG Version: 6.00 Build 0)  -->
<!DOCTYPE svg PUBLIC "-//W3C//DTD SVG 1.1//EN" "http://www.w3.org/Graphics/SVG/1.1/DTD/svg11.dtd">
<svg version="1.1" id="Layer_1" xmlns="http://www.w3.org/2000/svg" xmlns:xlink="http://www.w3.org/1999/xlink" x="0px" y="0px"
	 width="200px" height="200px" viewBox="156 156 200 200" enable-background="new 156 156 200 200" xml:space="preserve">
<path fill="#666666" d="M254.02,239.017c0.01-0.017,0.026-0.032,0.037-0.049c-0.041-0.196-0.075-0.369-0.09-0.492
	C253.985,238.656,254.005,238.835,254.02,239.017 M292.428,280.953c0.001,0,0.001-0.001,0.001-0.002
	c-0.006-0.003-0.023-0.003-0.026-0.009C292.408,280.948,292.422,280.948,292.428,280.953 M293.411,281.076
	c-0.238-0.038-0.772,0.032-0.983-0.123C292.297,281.403,292.493,281.573,293.411,281.076 M256,156c-55.229,0-100,44.771-100,100
	s44.771,100,100,100c55.228,0,100-44.771,100-100S311.228,156,256,156 M319.874,195.065c-3.445,0.103-5.845,0.111-8.613,2.021
	c-1.115,0.77-1.872,1.792-3.287,2.189c-1.27,0.357-2.64,0.044-3.898,0.471c-4.544,1.542-3.823,11.273-9.811,9.804
	c-2.813-0.69-4.794-4.013-6.21-6.183c-1.246-1.909-3.518-3.489-1.983-5.878c-0.699,0.18-1.445-0.025-2.134,0.106
	c0.959-2.107,4.175-1.922,4.71-2.999c1.333-2.698-3.669-2.979-5.086-3.353c1.707-1.821,2.572,0.611,4.257,0.198
	c1.619-0.398-0.855-2.531-1.826-2.77c-0.349-0.087-6.051,1.575-2.75-1.378c-4.075-2.597-8.146-5.194-12.223-7.793
	c-0.687,2.89,5.423,4.532,7.418,5.551c-0.311,1.193-2.167,2.931-3.588,2.422c-1.338-0.48-0.794-2.698-2.815-2.476
	c-1.443,3.356,3.052,2.375,3.469,4.432c0.475,2.342-1.699,1.35-2.535,1.309c-0.199-0.009-1.756-1.623-1.841-0.401
	c-0.102,1.449,2.485,0.884,2.667,2.348c-3.012,0.122-4.551-0.966-7.003-2.595c-2.861-1.899-4.33-1.727-7.836-1.727
	c1.049-0.431,2.492-0.751,3.389-1.444c0.49-0.379,2.412-2.247,2.538-2.665c0.545-1.798-0.028-1.663-1.75-2.841
	c-1.531-1.047-3.387-2.927-5.241-3.297c-6.719-1.343-2.073,6.067-7.173,7.088c0.087,0.004,0.182,0.009,0.257,0.009h-0.292
	c0.012-0.002,0.023-0.006,0.035-0.009c-1.18-0.042-3.392-0.33-4.151,0.293c-0.537,0.438-0.582,2.2-1.182,2.837
	c-1.067,1.138-2.659,1.366-3.933,2.187c-1.244,0.801-3.986,2.858-4.716,4.254c-2.692,5.144,6.065,6.74,9.385,8.242
	c1.5,0.68,5.884,1.61,6.7,2.745c1.095,1.524-0.943,2.954,1.343,4.025c0.73,0.341,2.237,0.411,2.865-0.296
	c1.021-1.151-0.415-1.412-0.66-2.742c-0.474-2.562,0.307-1.544,1.594-2.496c2.626-1.938,2.034-2.057,1.091-5.145
	c-0.439-1.439-2.094-5.451-0.64-6.512c1.899-1.386,5.946,0.75,7.401,0.928c1.694,0.208,2.655,2.555,3.579,3.515
	c0.612,0.637,1.709,1.989,2.78,1.843c1.7-0.232,0.987-1.719,1.975-2.404c2.646-1.835,3.341,0.657,4.396,3.15
	c0.992,2.34,1.93,3.209,3.695,4.711c0.82,0.699,4.412,3.194,4.073,4.731c-0.229,1.036-4.334,2.606-5.43,2.955
	c-4.013,1.27-11.537-2.081-12.345,4.281c1.556-0.581,5.982-4.196,7.311-2.482c0.605,0.778-0.48,1.911-0.225,2.683
	c0.757,2.316,2.544,1.509,4.416,1.135c-0.127,0.08-0.259,0.15-0.396,0.211c2.559-1.315,2.293-1.041,3.467-3.174
	c0.383-0.696,0.953-2.382,1.493-2.881c1.861-1.711,2.146-0.533,3.298,0.787c0.303,0.348,3.151,4.45,2.137,4.246
	c-3.313-0.666-6.495-0.576-9.243,1.236c-1.583,1.046-3.08,2.457-4.971,3.152c-0.453,0.166-3.81,0.484-3.413-0.089
	c0.579-0.833,2.573-1.387,3.359-2.287c-2.18-0.897-3.998,1.083-5.712,2.243c-1.817,0.86-2.24,2.463-3.788,3.868
	c-0.675,0.613-1.953,0.716-2.616,1.523c-0.644,0.782-0.725,2.012-1.333,2.755c-0.429,0.52-1.524,0.205-1.972,0.989
	c-0.582,1.025,0.532,1.974,0.288,2.713c-0.447,1.34-2.997,2.477-3.977,3.442c0.131-0.126,0.261-0.255,0.389-0.386
	c-0.982,1.03-2.227,1.789-2.994,2.982c0.353,1.685,1.462,5.701,1.153,6.625c-1.021,3.042-3.007-1.653-3.812-2.866
	c-2.766-4.167-8.293-1.378-12.07-1.034c-4.829,0.442-9.56,6.71-6.581,11.798c1.43,2.44,3.836,3.384,6.595,2.819
	c2.456-0.502,3.193-3.938,5.505-4c4.25-0.113,0.094,4.164-0.273,5.734c-0.34,1.454,0.53,1.589,2.026,1.948
	c1.106,0.265,2.671-0.473,3.629,0.158c0.604,0.399,0.574,2.582,1.405,1.894c-1.635,1.354-1.253,4.566,0.423,5.729
	c1.858,1.289,4.046,0.095,5.992,0.591c3.673,0.936,1.919-0.28,5.145-2.228c2.177-1.312,2.534,0.247,4.021,0.253
	c1.013,0.005,1.656-1.456,3.35-1.03c1.38,0.348,1.926,1.412,3.573,1.657c0.675,0.1,1.373-0.253,2.017-0.183
	c3.048,0.338,5.381,2.286,7.782,4.046c1.979,1.45,3.291,1.156,5.603,1.817c1.688,0.48,4.805,2.925,4.646,5.07
	c-0.029,0.384-1.505,2.315-1.758,3.183c0.433,0.301,3.438-0.372,4.317-0.436c-0.288,0.336-2.336,1.775-2.336,1.012
	c0,0.391,1.449,1.194,1.802,1.445c1.067-3.467,2.821-1.236,4.932-0.378c1.795,0.73,4.003,0.77,5.916,1.226
	c1.626,0.388,5.209,1.484,6.412,2.813c1.449,1.598,0.448,4.193-0.624,5.784c-1.404,2.085-3.519,2.886-4.394,5.337
	c-0.691,1.944-0.172,3.908-0.566,6.063c-0.534,2.916-0.963,1.895-2.841,3.674c-1.581,1.498-0.026,1.238-2.178,2.192
	c-2.162,0.961-4.064,0.675-5.562,3.046c0.06-0.148,0.108-0.299,0.15-0.455c-0.632,0.885-0.947,2.694-1.246,3.287
	c-0.755,1.516-1.795,2.471-2.988,3.733c-0.457,0.482-4.661,6.226-4.904,5.765c-0.313-0.6-3.627,0.603-3.785-0.254
	c0.133,0.72-0.031,0.479,0.792,0.894c-0.763,4.72-2.759,5.423-7.394,5.472c0.398,2.269-1.68,1.815-2.646,3.035
	c-0.564,0.713-0.834,2.715-1.226,3.638c-0.244,0.579-2.054,2.899-2.054,3.36c-0.002,0.424,0.608,1.044,1.18,1.64
	c-3.268,0.646-6.6,1.097-9.984,1.371c0.634-0.798,0.787-1.499-1.231-1.595c0.541-1.467,1.808-2.304,2.346-3.726
	c0.255-0.671,0.044-0.936,0.259-1.6c0.739-2.294,0.418-1.429,0.001-3.211c-0.974-4.174,0.349-5.315,1.486-9.138
	c1.168-3.93,1.06-9.021,1.808-13.253c0.354-2.025,0.938-6.238,0.234-8.152c-0.792-2.156-4.278-3.853-5.875-5.303
	c-2.26-2.059-3.461-4.284-5.139-6.829c-0.852-1.292-1.823-2.561-2.487-3.966c-1.421-3.005,0.001-1.216,0.24-2.989
	c0.229-1.714-0.204-3.246,0.477-5.045c0.752-1.988,2.631-3.228,3.248-5.232c0.556-1.785,0.133-4.029-1.701-4.625
	c-1.022-0.333-2.149,0.435-3.176,0.267c-1.432-0.231-3.053-1.301-4.176-2.156c-1.569-1.194-2.156-3.137-3.827-4.269
	c-1.398-0.945-2.393-0.38-3.889-0.821c-1.56-0.46-2.523-2.385-3.782-2.987c-1.889-0.903-2.953,0.394-4.946,0.132
	c-1.696-0.223-4.281-2.103-5.866-2.812c-3.221-1.442-5.183-3.033-6.471-6.302c-1.104-2.804-2.711-4.111-4.605-6.447
	c-1.918-2.366-2.52-4.381-5.477-5.013c-0.348-0.074,0.724,2.485,0.833,2.689c1.057,1.958,2.644,3.745,3.92,5.566
	c1.878,2.684,1.078,3.188-0.833,0.592c-2.184-2.968-4.72-5.92-6.614-9.064c-0.717-1.188-0.579-1.957-1.76-3.085
	c-1.142-1.09-2.636-1.62-3.786-2.657c-4.136-3.72-4.889-8.686-4.417-13.99c0.153-1.728,0.778-3.111,0.502-4.772
	c-0.228-1.38-1.042-2.521-2.06-3.538c-0.328-0.521-1.151-1.808-1.199-1.89c-0.938-1.56-1.669-3.094-3.161-4.375
	c-0.855-0.736-3.07-2.458-5.155-3.903c9.368-11.683,21.626-20.942,35.688-26.692c0.113,0.706,0.416,1.412,0.871,2.088
	c1.157,1.715,2.258,1.579,4.515,2.055c-0.242,2.619-3.304,2.639-5.376,2.354c-2.474-0.338-5.077-1.161-7.22,1.008
	c1.184,0.712,4.433,3.483,4.001,0.586c2.369-0.118,4.661-0.189,6.979,0.094c0.929,0.114,4.042,1.158,4.886,0.682
	c0.354-0.2,0.731-1.946,1.106-2.483c-0.661,0.003-1.37-0.33-2.028-0.267c1.536-1.965,3.065-0.424,5.02,0.48
	c-2.151,1.308-0.876,4.44,1.228,1.894c1.727-2.092-0.423-3.611-2.617-4.83c2.211-2.767,3.576-3.017,5.657,0.106
	c0.343-1.927,1.897-1.155,3.522-1.013v-0.481c-0.715,0.017-1.479-0.395-2.187-0.319c1.655-2.641,0.598-3.244,2.964-4.105
	c1.884-0.687,7.259-0.048,7.921-1.819c-3.761,0.731-8.306,0.906-11.7,2.617c-1.463,0.738-3.207,3.065-4.668,1.551
	c-1.497-1.551,1.071-4.047,2.386-4.81h-0.314c5.952-1.265,12.116-1.945,18.44-1.945c4.087,0,8.102,0.302,12.044,0.841
	c-1.364,0.716-0.355,1.2-1.35,1.932c-1.896,1.396-5.266,2.56-7.522,3.441c2.87-0.008,9.818,2.692,11.154-1.335
	c-0.927-0.141-1.851-0.284-2.777-0.427c1.73-1.146,3.659-2.075,5.686-2.756c18.276,3.622,34.533,12.892,46.899,25.901
	C320.047,195.065,319.959,195.062,319.874,195.065 M336.059,230.174c0.164-0.352,0.548-0.467,0.708-0.757
	c0.333-0.61,0.259-1.023,0.67-1.547c0.441-0.564,1.034-0.703,1.526-1.145c0.198-0.179,0.309-0.343,0.399-0.511
	c1.475,4.117,2.65,8.373,3.506,12.743c-0.026,0.031-0.04,0.079-0.072,0.104c-0.215,0.17-1.617,0.378-1.904,0.388
	c-1.016,0.04-1.77-0.635-2.498-1.269c-0.741-0.644-1.614-1.506-2.141-2.339c-0.563-0.891-0.215-1.805-0.175-2.822
	C336.111,232.164,335.696,230.945,336.059,230.174 M337.202,276.024c-1.717-1.492-3.744-3.493-4.965-5.427
	c-1.306-2.061-0.501-4.181-0.406-6.541c0.08-1.985-0.89-4.811-0.046-6.598c0.387-0.815,1.275-1.086,1.64-1.755
	c0.777-1.416,0.604-2.372,1.558-3.59c1.022-1.307,2.397-1.628,3.537-2.653c1.192-1.076,1.16-1.923,1.915-3.3
	c0.553-1.006,1.852-2.686,3.082-3.563c0.667,4.372,1.016,8.848,1.016,13.403c0,7.88-1.049,15.519-2.99,22.795
	C339.886,278.367,338.523,277.175,337.202,276.024"/>
</svg>
